<?xml version="1.0" encoding="UTF-8"?>
<!DOCTYPE svg  PUBLIC '-//W3C//DTD SVG 20010904//EN'  'http://www.w3.org/TR/2001/REC-SVG-20010904/DTD/svg10.dtd'>
<svg width="1200pt" height="1200pt" version="1.0" viewBox="0 0 1200 1200" xmlns="http://www.w3.org/2000/svg">
<metadata>Created by potrace 1.16, written by Peter Selinger 2001-2019</metadata>
<g transform="translate(0 1200) scale(.1 -.1)">
<path d="m3939 10968c0-13-2-34-4-48-40-266-51-829-21-1035 52-362 157-767 276-1070 134-340 331-671 563-945 127-151 211-233 371-365 208-171 311-263 435-386 87-87 122-116 117-99-15 59-36 220-36 286 0 39 7 110 15 158 14 82 78 292 94 309 4 4 13-30 21-75 16-101 50-197 136-380 36-77 78-172 93-212 15-39 31-80 36-91 7-18 8-17 17 10 16 50 21 332 9 456-16 164-72 414-125 559-13 36-45 124-71 195-62 170-150 393-187 475-69 150-153 317-174 346-13 17-21 34-18 37s-4 10-15 16c-12 7-18 17-15 26 4 11 2 13-9 10-8-4-17 1-21 10-3 9-11 13-17 9-7-4-9-3-6 3 4 6-12 31-34 57-22 25-38 46-35 46s-2 8-11 18c-10 11-21 17-25 15s-5 2-3 10c3 7-5 19-19 27-14 7-23 17-20 21 2 4 0 10-6 14s-7 12-4 18c4 7 4 9 0 6-7-7-73 52-69 62 1 3-16 25-38 48-21 24-39 47-39 52s-5 9-11 9-8 7-5 16c3 8 2 13-3 10s-20 12-35 34c-21 32-24 44-16 60 15 28 12 72-7 100-25 36-140 150-152 150-5 0-12-8-15-18s-15-18-25-18c-15 0-17 3-9 13s7 13-4 13c-20 0-79 69-71 83 3 7 3 9-1 5-7-6-66 49-66 62 0 4-9 17-20 30-11 12-17 27-14 32 3 4 2 8-3 7-21-4-32 3-42 30-7 15-24 34-38 40s-23 14-20 18c3 3 0 12-8 20-18 17-19 33-4 33 5 0 7-4 4-10-3-5 0-10 8-10s17-10 20-22c4-12 9-19 13-15 8 7 44-30 44-46 0-6 3-8 6-4 3 3 17-5 31-19 23-23 43-31 43-18 0 4-69 76-152 160-84 85-152 159-150 164 1 6-2 9-6 8-12-4-73 52-102 92-29 42-50 64-50 54 0-4-9 1-20 11-10 9-19 20-18 24 3 25-30 71-51 71-7 0-10 4-6 9 3 5 1 12-5 16s-7 12-4 18c4 7 4 9-1 5-10-10-77 71-68 84 3 6 1 8-4 5-6-4-21 9-34 28s-30 35-37 35-11 4-7 10c5 8-28 50-40 50-3 0-5-10-6-22z"/>
<path d="m7596 9589c-28-30-35-44-27-52 19-19 12-28-16-25-25 3-31-3-55-54-15-32-32-58-37-58-4 0-21-10-36-21l-27-22 28-23c15-13 24-27 21-31-4-3-18 4-31 16l-23 22-36-49c-20-27-60-87-89-133s-57-85-62-87-28 55-51 125c-45 135-81 226-123 308-49 97-48 98-61-52-21-236-72-429-176-658-45-100-136-405-170-570-22-107-31-443-15-550 14-93 50-202 80-245 26-36 36-38 44-7 10 43 88 152 155 217 75 73 210 184 351 285 52 38 129 97 170 131 103 85 297 287 369 384 122 163 247 388 294 526l24 70-21 20c-12 10-37 39-56 64-19 24-39 50-45 56-105 119-172 210-167 226 1 5-2 7-6 4-11-7-46 23-50 43-2 8-19 30-37 49-19 18-35 37-35 41 0 5-11 21-24 36s-22 34-19 42c8 20 1 16-41-28z"/>
<path d="m6277 8513c-4-3-1-13 6-21 10-13 9-14-3-10-23 8-68-19-85-52-25-49-19-88 19-126s77-44 126-19c33 17 50 43 50 74 0 12 4 21 9 21 12 0 21-26 21-60 0-33-44-74-72-67-18 5-42-15-31-26 3-4 21-7 39-7 44 0 94 56 94 105 0 30-11 47-76 115-76 80-85 86-97 73zm64-82c37-37 38-74 3-106-33-31-80-26-111 10-30 34-29 70 2 100 33 33 70 32 106-4z"/>
<path d="m8520 8510c0-5-7-10-15-10-13 0-269-127-375-187-19-11-62-35-95-53-130-71-371-225-520-333-453-328-695-555-870-817-65-97-152-266-142-276 3-3 25 10 51 29 25 19 85 61 133 93 341 222 368 243 434 327 39 48 39 48 39 20 0-43-55-233-90-310-40-89-126-214-199-292-33-36-59-66-58-68 2-1 28 4 58 12 165 44 326 72 564 100 310 36 457 67 700 147 367 122 701 306 1029 567 106 84 117 95 101 107-10 7-14 18-9 25 4 8 3 10-4 5-7-4-12-2-12 4s-17 29-39 53c-21 23-43 52-50 65-6 12-19 22-27 22s-12 5-9 10c3 6-1 13-9 16s-18 14-21 24-24 38-46 62-42 52-45 63-21 31-39 45c-19 14-37 33-40 43-7 18-25 24-25 7 0-16-61-49-79-43-9 3-1-9 17-27 33-33 37-42 25-54-9-9-193 174-193 192 0 8 6 12 13 9 9-3 18 8 26 29 7 19 23 42 37 50 13 9 24 21 24 28 0 6-22 36-50 66-27 30-49 58-50 62 0 3-18 26-40 50-22 23-40 46-40 49 0 4-13 21-29 39-16 19-27 40-24 47s2 13-1 13-6-4-6-10z"/>
<path d="m5976 8433c9-21 20-49 24-63 5-14 25-70 45-125 119-327 156-507 126-613-8-26-7-32 5-32 47 0 190 116 259 210 39 53 38 55-7 98-10 9-18 21-18 27s-19 32-42 57c-98 106-151 172-143 179 2 3-9 13-26 24-16 11-32 29-35 40-4 11-14 29-23 40-15 19-15 19 3 5 37-28 75-68 70-73-3-3 4-8 16-12 41-13 42 16 2 60-54 61-95 87-126 81-24-4-31 3-27 27 0 4-6 7-14 7s-15 5-15 11c0 5-5 7-12 3s-8-3-4 5c4 6 1 14-7 17-9 3-21 19-27 35-7 16-19 29-26 29-12 0-11-7 2-37z"/>
<path d="m8743 8124c-65-66 37-167 105-104 12 12 22 25 22 31 0 21-21 49-32 43-6-4-8-3-4 4 6 10-38 52-56 52-5 0-20-12-35-26z"/>
<path d="m6395 6518c39-34 138-128 220-208 154-150 199-186 295-236l55-29-50-5c-46-5-50-7-53-32-2-16-7-28-12-28s-8 12-7 28c2 23-2 27-26 30-16 2-34-2-42-8-9-8-14-8-17 0-2 6-37 16-78 21-139 20-318 88-429 164-28 19-51 34-51 32 0-3 29-64 64-138 67-139 123-274 174-419 123-344 176-464 290-658 187-315 455-630 742-872 102-86 426-320 542-391s318-183 413-230c134-65 509-187 807-263 229-58 248-61 248-41s65 86 76 77c10-9-48 69-64 86-7 8-10 18-6 23 3 5 2 9-3 8-20-3-33 2-33 14 0 6-13 27-29 46-17 19-28 38-25 43 3 4-2 5-10 2-9-3-17 2-21 16-4 11-24 39-46 62-21 23-39 44-39 48 0 3-18 26-40 50s-40 48-40 52-18 26-40 49-40 45-40 49-18 27-40 51-40 47-40 50c0 4-19 27-42 52-24 24-44 51-46 58s-12 21-24 30c-11 11-17 23-12 30 4 7 3 9-3 6-6-4-23 10-39 31-16 20-43 53-61 72-19 20-31 41-27 50 3 8 2 11-2 7-10-10-54 44-47 57 3 6 3 8-2 4-11-11-47 33-40 49 3 8 0 11-6 7-6-3-17 3-25 15-9 12-20 19-25 15-5-3-8-2-7 3 4 13-22 54-60 95-19 21-42 48-50 60-9 13-20 26-25 29-5 4-6 12-2 19 5 8 4 11-3 6-13-8-54 43-45 58 3 6 3 8-1 5-7-7-76 57-76 71 0 4-20 29-45 56-25 26-45 51-45 56 0 4-18 26-40 49s-42 50-45 60c-4 11-11 19-17 19-5 0-7 7-4 16 3 8 2 13-3 10-9-6-51 30-51 44 0 5-15 25-32 43-56 58-78 93-66 105 8 8 5 10-8 6-13-3-26 5-41 28-13 18-34 46-48 62s-25 32-25 35-18 26-40 50-37 48-33 54c3 6 1 7-5 3-7-4-17 3-24 19-6 14-17 24-24 21-8-3-11 0-7 10 3 9-1 14-13 14-9 0-14 3-11 6 3 4-2 18-13 32-11 13-17 28-14 33s1 8-4 7c-12-4-79 68-98 104-7 14-24 35-36 45-13 10-36 37-52 61s-35 46-41 50c-21 13-47 61-39 73 4 7 3 9-3 6-13-8-36 17-25 28 4 5 2 6-3 2-6-3-22 3-35 14-21 16-22 18-5 13s16-2-5 15c-14 12-36 32-50 45-92 85-340 254-478 324-175 90-408 172-490 172-24 0-20-6 43-62zm1836-1818c31-17 23-34-41-89-61-54-72-74-44-85 49-19 104 19 109 74 4 50 4 50 15 50 6 0 10-20 10-45 0-37-5-51-26-70-15-14-30-25-33-26-3 0-17-2-29-5-53-10-122 51-122 108 0 25 23 64 50 85 19 15 84 17 111 3z"/>
<path d="m3420 6469c0-5-4-7-10-4-18 11-380-114-751-260-372-147-558-205-809-250-229-41-600-74-840-75l-85-1 40-25c66-41 412-209 531-258 358-146 950-310 1214-337 148-15 614-19 823-6 136 8 302 28 432 53 119 23 335 77 335 84 0 8-29 43-87 106-24 25-43 49-43 54 0 4-20 29-45 56-25 26-45 51-45 55s-18 27-40 51c-22 23-40 46-40 50s-11 18-25 32-37 42-51 63-30 38-36 38-13 6-16 13c-3 9 3 10 24 2 83-32 165 32 149 116-7 38-25 37-25-1 0-61-57-106-103-83-17 9-12 17 44 74 67 71 68 81 4 101-43 13-71 6-105-28-23-24-30-40-30-70v-39l-45 46c-24 26-47 55-51 66-3 11-12 17-19 14-9-3-12 0-9 9 3 7-8 23-25 36s-31 28-31 33c0 6-18 31-40 55s-40 46-40 50c0 3-13 21-29 40-17 19-28 38-25 43 3 4-1 6-8 3-17-5-82 92-65 99 7 2 4 5-5 5-10 1-18-4-18-10z"/>
<path d="m6040 5624c0-30-109-239-183-350-41-62-93-158-117-215s-50-113-57-125c-7-11-11-23-8-26s1-18-5-33c-18-48-49-223-60-342-20-215 23-505 110-740 26-69 78-174 148-295 56-98 79-123 65-70-12 43-8 319 5 399 7 40 34 144 61 230 96 308 151 523 178 690 10 62 20 113 23 113 3-1 25-28 50-61 53-72 176-191 245-239 55-38 187-112 191-107 1 1-20 37-47 79-60 94-104 201-129 316-38 173-106 374-172 507-46 92-152 208-236 257-55 32-62 34-62 12z"/>
<path d="m5284 4692c-56-45-59-109-9-159 33-33 39-35 82-30 59 6 93 43 93 100 0 20-4 37-10 37-5 0-10-12-10-28 0-58-59-103-105-79l-24 12 122 128-22 19c-29 23-89 23-117 0z"/>
<path d="m5131 4541c-19-9-38-29-48-52-18-41-29-41-44-2-5 13-14 23-20 21-7-2-25-51-41-108-61-217-133-368-247-515-26-33-51-66-56-74-12-20 232 109 330 174 102 68 241 197 247 229 3 14 2 25-1 24-14-3-41 15-41 27 0 6-11 24-25 39l-24 26h33c48 0 96 55 96 110 0 41-14 61-24 34-3-9-6-27-6-40 0-41-60-76-95-56-11 6-1 23 41 70 54 60 55 64 40 81-23 25-76 30-115 12z"/>
<path d="m4370 600v-130h63c34 0 73 6 87 13 52 26 77 126 45 187-24 47-52 60-127 60h-68v-130zm151 81c21-16 24-28 24-81 0-78-21-100-96-100h-49v100 100h49c33 0 56-6 72-19z"/>
<path d="m5790 686v-44l-29 11c-75 28-128-61-86-143 18-34 56-47 91-31 15 6 24 7 24 1s7-10 15-10c13 0 15 21 15 130s-2 130-15 130c-11 0-15-12-15-44z"/>
<path d="m5960 600c0-109 2-130 15-130 8 0 15 4 15 10s9 5 24-1c35-16 73-3 91 31 42 82-11 171-86 143l-29-11v44c0 32-4 44-15 44-13 0-15-21-15-130z"/>
<path d="m6440 600c0-109 2-130 15-130 12 0 15 13 15 55v55h55c46 0 60 4 80 25 34 33 33 77-1 104-21 17-41 21-95 21h-69v-130z"/>
<path d="m4650 640c-25-25-34-61-26-105 13-66 85-87 134-38 29 29 14 47-17 19-23-21-54-20-74 2-31 34-21 42 48 42 63 0 65 1 65 25 0 61-87 98-130 55z"/>
<path d="m5112 653c-18-7-42-57-42-88 0-33 24-81 45-89 26-10 60-7 73 6 9 9 12 8 12-8 0-11-5-25-12-32-17-17-63-15-78 3-16 19-40 19-40 1 0-22 40-46 78-46 22 0 41 8 57 25 23 23 25 31 25 130 0 87-3 105-15 105-8 0-15-5-15-10 0-7-6-7-19 0-21 11-47 12-69 3z"/>
<path d="m5490 640c-25-25-34-61-26-105 13-66 85-87 134-38 29 29 14 47-17 19-23-21-54-20-74 2-31 34-21 42 48 42 63 0 65 1 65 25 0 61-87 98-130 55z"/>
<path d="m6902 653c-18-7-42-57-42-88 0-33 24-81 45-89 26-10 60-7 73 6 9 9 12 8 12-8 0-11-5-25-12-32-17-17-63-15-78 3-16 19-40 19-40 1 0-22 40-46 78-46 22 0 41 8 57 25 23 23 25 31 25 130 0 87-3 105-15 105-8 0-15-5-15-10 0-7-6-7-19 0-21 11-47 12-69 3z"/>
<path d="m7310 640c-25-25-34-61-26-105 13-66 85-87 134-38 29 29 14 47-17 19-23-21-54-20-74 2-31 34-21 42 48 42 63 0 65 1 65 25 0 61-87 98-130 55z"/>
<path d="m7510 640c-25-25-34-61-26-105 13-66 85-87 134-38 29 29 14 47-17 19-23-21-54-20-74 2-31 34-21 42 48 42 63 0 65 1 65 25 0 61-87 98-130 55z"/>
</g>
</svg>
