<?xml version="1.0" encoding="UTF-8"?>
<!DOCTYPE svg  PUBLIC '-//W3C//DTD SVG 20010904//EN'  'http://www.w3.org/TR/2001/REC-SVG-20010904/DTD/svg10.dtd'>
<svg width="590pt" height="444pt" version="1.0" viewBox="0 0 590 444" xmlns="http://www.w3.org/2000/svg">
<metadata>Created by potrace 1.16, written by Peter Selinger 2001-2019</metadata>
<g transform="translate(0 444) scale(.1 -.1)">
<path d="m60 2220v-2220h2920 2920v1241c0 699-4 1238-9 1235-4-3-11-28-15-55-4-28-11-53-16-56-6-3-10-29-10-57 0-38 3-49 13-45 11 4 13-6 9-46-7-73-21-106-19-43 1 32-2 50-10 53-7 3-13-2-13-11 0-8-3-17-7-19-5-3-7 54-6 126 1 93-2 140-12 164-8 18-12 40-9 48 4 8 1 15-5 15-5 0-19 10-31 22-20 21-20 21-20 1 0-16-5-19-23-16-15 3-32-5-51-22-20-19-32-23-39-16-19 19-28 12-21-14 4-16 0-35-11-52-10-14-21-38-25-52-7-21-8-22-9-5-1 11 6 29 14 40 19 25 19 136 0 189-20 56-19 82 5 88 23 6 27 41 8 82-14 31-4 43 22 27 11-6 26-9 35-6 8 3 15 1 15-6 0-6-5-8-12-4-6 4-8 3-5-4 4-5 18-9 32-7 14 1 28-2 31-6 3-5-4-9-15-9-17 0-21-6-21-29 0-18 8-35 18-43 11-7 25-24 32-38l13-24 9 24c8 21 5 28-16 45-24 19-37 43-17 31 5-4 12 0 14 6 3 8 6 6 6-4 1-10 6-18 11-18 6 0 10-6 10-14 0-7 9-25 20-39 12-15 20-40 20-62 0-26 7-43 22-57 22-18 22-18 33 3 10 18 13 19 18 5 4-9 13-16 22-16 13 0 15 103 15 945v945h-2920-2920v-2220zm1869 1625c61-5 71-11 71-40 0-14 5-34 12-44 10-16 7-29-15-74-34-70-49-137-41-186 5-31 3-39-12-45-52-20-120 125-134 289-9 99-1 120 43 110 18-3 52-8 76-10zm328-18c16-18 56-52 89-75 58-41 63-42 115-36 71 8 169-8 307-50 188-58 336-137 347-186 15-66 16-82 5-95-20-24-30-18-54 38-13 29-30 58-37 64-33 27-139 81-175 88-21 5-41 9-44 10s-21 5-40 9-59 16-88 27c-29 10-72 18-95 18-38-1-34-3 40-21 62-15 82-24 86-39 4-16 11-18 31-13 38 9 242-100 255-136 5-16 5-33 0-41s-9-24-9-36c0-28-66-79-121-93-26-7-36-15-33-24 6-17-44-36-93-36-42 0-73-15-73-37 0-11-6-14-22-9-13 4-34 9-47 12-29 6-80 45-80 62-1 7-14 12-30 12s-36 7-45 15c-8 8-17 15-21 15-3 0-25 18-47 40-23 22-48 40-55 40s-13 9-13 19c0 11-8 27-17 37-10 9-23 28-30 42-12 22-11 28 8 49 36 37 12 40-27 2-35-34-36-34-124-34-118 0-126 6-106 77 17 59 65 192 90 250 32 75 103 91 153 35zm-811-210 45-88v-119c0-84-5-129-16-156-8-20-15-44-15-53s-6-26-13-38c-6-11-25-44-41-71-16-28-35-53-42-56-20-8-18 0 21 63 53 86 76 168 82 302l6 115-43 95c-70 157-63 160 16 6zm258 84c7-6 19-33 26-59s24-66 37-89c13-24 19-43 14-43s-13 5-16 10c-9 14-82 12-88-2-8-24 13-48 63-69 27-11 56-29 66-40 18-20 54-25 70-10 29 29 234 45 250 19 4-6-19-34-51-64-63-60-67-82-7-40 46 32 72 34 72 5 0-12 8-23 20-26 13-4 20-14 20-32 1-34 20-58 50-63 17-2 26-10 28-25 2-13 9-23 15-23 15 0 62-42 83-75 9-14 19-25 23-25 10 0 6 153-5 156-5 1-21 5-35 8-32 7-42 27-29 58 5 13 9 17 9 11 1-8 17-13 44-13 38 0 46-4 75-42 18-23 32-45 32-49s9-10 20-14c10-3 35-28 55-56 35-46 37-54 40-137 5-107-8-207-29-228-9-8-16-21-16-27s-21-33-47-60c-30-31-43-51-35-54 19-7 14-23-7-23-11 0-23-4-26-10-10-17 44-11 85 9 31 15 40 16 40 6 0-8 8-19 18-24 13-8 9-9-18-5-35 5-35 5-10-10 23-14 19-15-61-9l-87 6-60-46c-33-26-67-62-76-82-24-51-51-213-42-250 8-30 8-30 17-7 5 13 7 27 4 32-8 12 43 151 70 190 47 67 155 137 196 127 40-10 109-65 119-95 6-15 14-34 20-42 5-8 18-34 29-57 11-24 24-43 28-43 5 0 10-12 11-26s11-43 23-64c17-30 19-41 10-58-10-19-8-22 14-28 13-3 31-18 38-33 7-14 22-39 32-56 17-26 17-28 2-16-9 7-18 10-18 5-1-5-2-16-3-24 0-8-9-14-19-12-9 2-20-4-23-12-10-25-51-29-74-6-21 21-19 40 4 40 7 0 21 7 32 15 17 13 14 14-39 15-44 0-59-4-64-16-4-10 1-22 11-30 10-7 20-31 23-53 3-23 8-41 10-41s30 17 61 38c51 34 60 36 82 25 24-12 24-13-33-38-32-14-62-25-67-25s-14-8-19-17c-9-16-13-15-35 12-14 17-33 45-43 63-10 17-20 32-24 32-3 0-27-16-53-36s-50-34-52-31c-3 3 6 14 20 25 29 23 35 45 9 35-22-8-63-44-63-54 0-5 15-11 33-14 24-5 43-1 70 15s37 18 37 8c-1-18-25-48-39-48-6 0-11-9-11-21 0-11 4-18 9-15 4 3 6-7 3-22-5-25-4-26 14-12 10 8 29 23 41 34 32 27 41 12 15-24-28-37-28-45 0-26 28 20 52 20 68 1 10-12 8-16-14-25-22-8-26-14-20-37 10-51 27-73 66-90 21-9 38-20 38-23 0-10-44-28-87-36-21-4-50-13-64-20-23-11-28-10-47 9-37 36-34 13 4-37 42-55 39-68-7-34-22 16-33 19-36 11-3-7-9-13-14-13-6 0-7 5-3 12s3 8-4 4-12-14-12-22-4-14-10-14c-16 0-12-28 8-48 39-42 53-82 27-82-8 0-15 9-15 20 0 12-9 22-24 26-17 4-27 17-35 47-13 44-87 177-99 177-4 0-18 17-30 38-13 20-51 60-84 87-33 28-67 56-74 64-13 11-18 11-33-3-21-19-38-21-23-3 22 26 52 143 52 203 0 55 27 251 48 359 15 71 41 104 139 171 52 36 52 36 32 57-20 22-20 44-1 40 8-2 9 5 2 23-6 14-10 36-10 49 0 54-42 204-67 236l-25 34 7-65c4-36 18-92 30-125 13-33 27-73 30-90 5-27 4-26-14 10-11 22-21 47-21 55-1 8-10 33-21 55-10 22-17 31-14 20 21-92 25-117 25-171 0-73-16-97-79-116-50-15-76-48-39-48 17-1 12-5-16-15-22-8-43-12-46-10-4 3-27-5-51-17-37-18-63-21-164-22-148-1-201 15-246 77-30 41-37 67-19 67 6 0 10-5 10-11 0-8 12-10 35-6 19 3 37 2 40-3s30-14 60-20 57-16 60-21c11-17 54-9 69 13 19 26 21 48 5 48-6 0-24 9-39 20s-45 23-66 28c-29 6-40 14-44 32-3 13-19 32-35 41-40 23-45 23-45-3-1-22-1-23-15-4-8 11-15 27-15 35 0 9-9 27-20 41l-20 25v-47c0-54-17-57-38-8-8 16-18 28-24 27s-12 9-14 23c-4 23-15 52-35 92-12 23-11 31 0 23 17-10 20 10 9 54-14 53 7 151 32 158 28 7 61 92 70 173 4 41 4 82 0 90s-10 40-13 70-19 84-35 120c-36 81-47 133-30 148 26 20 148 23 172 3zm-388-20c17-15 46-49 63-75l33-47-4-132c-5-146-16-184-98-314-42-66-52-95-25-73 13 11 14 10 9-3-3-8-12-18-19-21-8-3-17-20-20-39-5-25-31-60-93-126-88-93-112-107-112-70 0 11-12 55-27 97-67 192-7 502 141 724 26 40 99 107 116 107 3 0 19-12 36-28zm1840-170c32-31 135-73 222-90 90-18 156-36 382-101 141-41 194-87 188-163-2-26-8-41-15-40-7 2-23-1-37-7-18-6-28-5-36 6-16 18-49 18-70-1-9-8-43-20-76-25-71-12-130-28-163-44-15-7-95-11-225-11h-201l-85 37-84 36 69 31c77 35 106 58 141 113 29 46 30 72 5 144-11 30-18 61-15 68s-2 19-11 26c-16 13-20 30-7 30 4 0 12-4 18-9zm1288-258c32-8 87-26 123-39s74-22 86-19c14 4 32-1 47-13 14-11 52-27 85-36s74-23 90-31c48-22 135-44 205-51 35-4 85-17 110-29 25-13 68-26 95-30 70-9 95-16 95-25 0-5-15-4-32 1-47 13-111 12-102-2 12-20-47 0-83 27-33 25-63 32-63 14 0-5 4-10 8-10 5 0 17-7 28-15 17-13 8-15-91-13-60 0-114 0-120-2-5-2-36 0-68 4-47 7-61 5-76-8-22-20-42-20-67 0-18 15-18 15 7 10 18-4 35 0 50 14l24 19-25 2c-63 4-186-4-197-13-18-15-16-22 8-33 12-6 21-14 20-18-4-14 40-46 54-41 7 3 16 1 20-5 4-7-12-11-49-10-40 1-56 6-56 15 0 16-17 19-22 4-5-17-172 4-207 26-37 24-151 152-151 170 0 17-17 19-22 3-7-22-38 22-38 55 0 41 45 86 97 97 47 9 139 2 217-18zm-3540-423c9-41 22-94 28-118 9-36 8-53-8-100-24-75-34-85-34-34 0 37-3 42-23 42-21 0-25 7-34 63-6 34-12 78-12 96-1 19-4 37-7 40-10 10-24-24-19-46 3-12 1-25-5-28-12-8-13-65-1-65 14 0 22-44 9-51-8-5-7-12 4-23 12-11 14-25 8-55-5-26-2-57 6-83 7-24 16-64 19-90 5-40 10-48 27-48 16 0 19-5 14-22-3-13-6-31-6-40 0-24-19-22-53 6-54 44-108 323-74 377 8 13 17 52 20 85 2 34 11 75 20 90 8 16 20 43 27 59l13 30 27-58c15-32 31-68 35-80 15-47 16 11 1 69-21 84-30 177-20 221 7 33 9 24 14-62 4-55 14-134 24-175zm546-105c18-55 36-104 41-110 5-5 9-21 9-35 0-28 49-86 105-124 16-12 46-33 65-48 19-14 55-32 80-38 61-17 370-22 389-7 12 10 13 0 6-73-4-47-9-96-11-110s-6-50-9-80c-2-30-7-81-10-112-9-86-98-266-170-344-28-30-62-31-92-2-26 24-30 40-8 32 10-4 18 3 24 19 5 14 22 37 38 51 32 30 28 38-47 79-34 19-45 31-46 51-1 14 2 23 7 21 14-9 39 7 39 26 0 18 2 18 35 5 20-9 37-11 40-5 8 12-3 29-19 29-17 0-16 30 2 48 27 30 7 55-53 66-37 7-59 28-25 24 13-2 25 2 25 9 0 6 3 15 8 19 4 4 7 17 7 29 0 22-34 45-66 45-8 0-17 6-20 14s-17 16-32 19c-23 5-136 83-180 125-7 6-19 12-25 12-12 0-62 69-55 75 2 2 19-11 38-29 62-58 74-48 19 15-71 82-95 121-142 232-7 15-15 27-19 27-5 0-8 5-8 11 0 5 5 7 10 4 15-9 17 61 4 120-14 62 14 8 46-90zm-152 98c-1-5 4-19 12-33 10-18 14-53 12-119-2-103-34-217-94-335-16-32-38-89-48-127s-25-80-34-94c-9-13-16-36-16-51s-11-42-25-60-25-37-24-41c3-18-1-33-9-33-15 0-6 59 11 78 9 10 18 27 20 38 2 10 9 30 14 44 14 34-5 40-30 9-36-46-108-119-117-119-8 0-29 120-23 129 1 2 12-8 24-23 33-42 41-19 23 64-15 65-16 89-5 188 16 153 44 222 127 310 35 37 64 72 64 78 0 14 95 104 110 104 5 0 9-3 8-7zm-192-110c-41-54-89-129-107-168-31-68-32-75-37-248-3-116-8-175-15-168-6 6-8 77-4 188 5 168 7 182 35 257 17 43 41 90 54 105 37 42 142 140 146 136 2-2-30-48-72-102zm3272 64c10 2 31-1 47-8 17-7 35-13 41-14 6 0 21-7 35-16 13-9 41-24 62-34 44-21 81-65 133-160 21-38 42-71 46-73s8-10 8-17c0-8 6-18 14-22 24-14 44-68 51-134 3-35 11-77 17-93 9-23 9-31 0-34-7-2-12-13-12-25 0-17-2-19-9-8-5 8-7 20-4 28 3 9 0 11-10 7-15-5-45 36-88 125-20 42-132 196-150 207-14 8-11-4 8-34 17-26 17-27-2-12-30 23-85 83-85 92 0 5 9 4 20-2 31-16 24 0-17 42s-71 54-33 13c39-41 17-37-28 5-46 44-104 56-116 24-4-9-9-14-13-11-10 11 27 57 46 57 17 0 19 7 16 63-2 34-1 55 1 46 3-10 12-15 22-12zm-270-50c2-9 8-17 14-17 16 0 3-108-15-129-17-18-67-112-67-124 0-4 11-5 25-1 33 8 31-26-2-37-8-3-9-9-4-18 12-19 30-5 52 43 19 41 39 76 49 86 3 3 16 18 28 34 33 43 27 8-8-44-16-25-30-56-30-70 1-24 1-23 14 6 15 33 36 53 36 34 0-6 5-8 10-5 6 3 10-1 10-9s-4-17-9-20c-5-4-12-24-16-46s-15-46-26-53c-10-8-26-30-34-51-13-31-19-35-30-26-11 10-15 7-21-16-4-15-2-35 4-45 9-14 9-17-1-13-21 8-49-67-29-79 4-2 2-2-5-1-14 3-43-50-43-78s17-13 25 22c4 17 11 30 17 30s7-7 4-16-6-26-6-39c0-17-8-26-30-34-16-5-30-17-30-25 0-9-7-34-16-56-13-33-34-52-116-107-63-43-94-69-84-71s27 3 39 12c123 88 207 132 207 108 0-27-17-46-56-63-26-11-42-23-39-31 4-12-56-58-76-58-6 0-7-4-4-10 4-6 17-4 35 5 45 23 53 18 27-17-14-18-41-64-61-103-20-38-65-111-100-162-62-90-64-91-86-76-20 14-22 21-16 69 12 101 70 194 141 228 48 23 47 47-2 39-78-13-146-80-188-182-35-87-54-100-48-30 4 42 1 53-19 74-15 16-34 25-55 25-37 0-40 5-18 26 10 10 25 13 43 9 30-6 32-4 163 137 19 20 81 85 139 145 118 122 230 280 230 324 0 16-4 29-9 29-11 0-141-140-141-152 0-4-7-8-15-8-11 0-13 8-8 33 6 31 3 29-73-44-187-180-229-225-226-237 2-7-3-12-10-11-27 3-38-1-38-16 0-8-6-15-13-15s-30-9-51-21c-54-29-146-36-191-15-40 19-45 46-21 131 14 49 80 179 122 240 12 17 42 64 67 105 25 42 88 120 139 174s100 111 108 128c9 16 19 26 22 22 4-3 26 9 50 28 72 57 98 71 112 59 9-8 26-4 61 13 26 14 51 29 54 33 30 43 132 65 139 30zm294-136c9-18 26-42 37-52 24-23 25-26 10-67-9-26-6-38 21-89 42-79 89-143 104-143 8 0 19 6 25 13 14 17-17 127-36 127-7 0-13 7-13 15 0 28 25 14 63-36 48-62 97-165 97-201s10-59 22-51c7 4 9-4 6-21-3-14-1-29 3-32 5-3 9-10 9-16 0-7-4-7-14 1-11 9-14-6-19-85-3-53-10-101-15-106-6-6-8-17-5-24 8-21-28-30-39-11-5 10-16 17-23 17-8 0-15 5-15 12 0 23-53 88-71 88s-30-27-27-60c3-39-3-71-14-68-14 5-15 6-77 140-63 134-74 194-70 388 2 85 0 184-3 220-4 35-4 68-1 73 9 15 28 2 45-32zm408-521c0-9 19-35 46-64 34-36 48-84 52-181 2-55 2-111 1-125-4-23-6-22-26 17-12 22-19 43-16 46s-4 18-16 33c-11 14-26 43-32 63-14 43-27 221-16 221 4 0 7-4 7-10zm-1011-63c-190-180-278-255-329-283-19-11-56-33-81-51-46-32-46-32-107-20-34 6-62 15-62 19 0 5-7 8-15 8-19 0-19 21 0 46 14 19 14 18 15-3 0-23 23-32 35-13 3 5 36 10 73 10 96 1 104 2 132 28 65 61 77 70 98 77 17 5 21 12 17 26-5 13-2 19 10 19 9 0 59 43 111 96 72 72 99 94 113 89 11-3 22-1 26 5s10 9 13 6c3-4-19-30-49-59zm-2856-105c-2-10 3-24 11-31 13-11 24-10 62 9 31 14 50 18 56 12 13-13 2-32-17-32-8 0-23-19-34-42-12-24-29-56-39-73-10-16-24-49-31-72-8-23-25-52-37-64-13-13-24-29-24-37s-13-42-29-76c-15-33-36-78-45-100-9-21-20-36-23-32-3 3-1 11 5 18s16 36 23 63c6 28 17 61 24 75s23 72 34 130c12 58 27 119 32 137 5 17 12 54 16 82 3 28 9 51 13 51 5 0 6-8 3-18zm1954-12c3-17 10-33 14-36 5-3 9-29 9-58 0-42-6-60-27-89-16-20-32-35-38-33-5 1-12 27-15 57-5 48-3 56 18 76 13 12 21 27 17 32-3 6-1 11 4 11 6 0 11 7 11 16 0 13-3 14-14 5-10-8-16-9-21-1-3 6-11 8-16 5-15-10-10-23 9-28 19-4 22-3-60-33-46-16-63-34-33-34 8 0 12-6 9-14s2-28 11-45c19-38 10-61-14-34-23 25-71 112-71 129s12 18 28 2c11-11 13-10 12 7-1 8 50 49 90 74 49 30 69 27 77-9zm-2156-115c5 4 6 0 3-8s-1-18 5-22c6-3 11-30 11-59 0-43-6-61-30-94-17-23-35-63-41-89-6-27-22-84-35-129-13-44-24-86-24-92 0-7-8-12-19-12-25 0-35-15-51-75-17-67-30-79-18-18 5 26 9 100 9 163 0 136 16 320 33 373 11 33 13 16 12-132-1-118 3-174 11-182 9-9 13-3 19 27 4 21 13 45 21 52 7 7 13 28 13 45 0 18 11 49 26 70 22 33 24 42 14 71-11 34-5 70 11 60 5-3 9 12 10 33 0 21 3 32 6 25 2-6 9-10 14-7zm1398-43c81-55 170-159 171-200 1-9 7-28 15-42s14-34 15-46c0-11 9-29 20-39 31-28 26-60-12-76-50-21-262-13-293 11-5 4-23 10-39 14s-49 21-73 38c-35 26-45 39-50 71-3 22-14 48-25 59-24 24-23 32 3 25 19-5 20-4 5 12-23 26-21 28 29 27 43-1 49 3 101 57 30 31 60 71 66 87 5 17 13 30 17 30 5 0 27-13 50-28zm937-27c13-10 11-19-27-112-7-18-10-35-7-39 4-3 29 6 55 22s75 34 108 40 66 13 74 15c25 7 22-17-4-29-28-13-33-37-10-46 8-3 15-2 15 3 0 9 80 35 87 28 2-3 18-1 34 3 21 6 29 6 27-2-3-7-29-17-60-23s-63-16-71-23c-15-13-47-6-59 12-4 6-11 6-20 0-7-6-31-11-53-13-70-3-168-32-202-58-42-32-55-22-20 15 15 16 27 33 27 40 0 20-23 13-49-13-12-14-27-23-31-20-5 3-12-1-17-8-12-19-64-53-93-60-14-3-44-24-67-47-47-45-63-50-63-20 0 11-6 36-14 54-8 20-10 39-5 47 5 9 9 10 9 2 0-7 13-5 38 7 32 16 99 34 210 55 29 6 33 10 28 31-5 17 2 32 26 58 18 19 45 47 59 63 42 45 53 52 58 39 2-6 10-15 17-21zm1718 23c7-7 18-28 24-46s20-45 30-60c11-15 25-44 32-66 7-21 23-54 36-73s26-50 30-69c3-19 11-37 17-41 7-4 8 2 3 18-4 13-11 52-16 86-6 34-19 86-30 115-13 36-15 47-5 34 8-11 15-26 15-34 0-7 5-10 10-7 6 3 10 19 10 36 0 16 5 29 10 29 6 0 10-9 10-20 0-26 20-110 31-132 11-21 29-92 35-133 2-16-9 6-24 50l-27 80-3-58c-3-64 17-149 48-200 26-41 25-60 0-27-19 24-19 23 1-40 11-36 17-75 14-87-3-13-1-23 5-23s9-4 5-10c-3-5-13-6-21-3-13 5-15 1-10-15 6-19 3-20-47-19-40 2-53 5-49 15 2 7-5 20-16 30-15 13-19 25-15 46 4 20 2 27-6 22-6-4-11-3-11 2s9 12 20 15c20 5 20 7 5 42-8 21-15 47-15 59 0 11-18 68-40 126s-45 122-51 143c-10 39-29 50-29 17 0-11-4-20-10-20-5 0-10 5-10 11 0 8-6 7-16-2-19-16-19-14 10 121 19 87 23 100 31 100 4 0 12-6 19-12zm-3779-87c-19-105-106-321-174-431-11-19-30-53-40-75-16-32-21-36-27-22-14 37 114 352 162 397 29 28 31 44 4 35-29-9-25 6 10 39 22 20 29 34 24 48-6 22 23 61 38 52 6-4 7-22 3-43zm2007-352c100-22 166-57 253-137 22-20 42-37 45-37 5 0 111-112 132-140 4-5 24-30 43-53 19-24 35-48 35-52 0-15-21-23-32-12-8 8-19 6-40-5-22-14-30-15-40-5-16 16-88 16-88-1 0-13-146-23-352-21h-118l-40 44c-22 24-40 46-40 50s-9 18-21 31c-34 39-118 162-141 207-10 19-8 26 17 52 73 76 239 110 387 79zm418-33c34-11 107-20 190-24 84-4 124-8 105-13-29-6-28-7 9-8 24-1 43 5 50 14 16 21 228 32 282 15 44-15 124-66 124-80 0-16-46-11-60 5-7 8-17 15-23 15-7 0-7-4 1-12 18-18 14-39-18-83-48-66-62-105-61-172 1-57-1-63-19-63-26 0-80-27-80-40 0-5 5-12 10-15 18-11 11-25-13-25-25 0-74 47-97 93-7 15-18 27-23 27-12 0-48 39-65 71-20 37-32 50-92 99-90 74-100 87-56 76 14-3 28-2 31 4 4 6-12 10-40 10-47 0-105 24-161 66-17 13-34 24-38 24-10 0-116 49-116 54s91-17 160-38zm-1005 2c3-3 2-13-1-23-6-14-14-16-47-11-23 4-47 12-54 17-6 6-17 8-23 4-20-12-10-43 25-74 20-17 32-31 27-31-4 0-13 5-20 12-8 8-12 8-12 1 0-14 70-73 87-73 7 0 13-9 13-20s5-20 10-20c6 0 10-5 10-11s11-25 25-44c33-42 47-89 32-104-6-6-23-11-38-11-18 0-34-9-48-27-44-59-45-60-55-30-6 15-13 27-18 27-4 0-8 7-8 15 0 9 9 15 23 15 41 0 63 71 28 89-12 7-21 27-25 55-6 40-26 75-26 46 0-5-30 22-67 62-38 39-80 85-95 100-30 32-26 36 37 40 63 5 215 2 220-4zm1788-169c3-10 11-18 19-16 7 2 11 2 8 0s-5-42-4-90c2-73-1-91-17-111-10-14-19-30-19-37 0-9-14-7-52 6-48 16-53 20-56 51-7 60 17 135 54 174 19 20 34 41 34 45 0 16 28-3 33-22z"/>
</g>
</svg>
